<mxfile host="app.diagrams.net" modified="2021-06-29T10:59:04.735Z" agent="5.0 (Macintosh; Intel Mac OS X 10_15_7) AppleWebKit/537.36 (KHTML, like Gecko) Chrome/91.0.4472.114 Safari/537.36" etag="kegKqSnBLv1JwCbgq5Ek" version="14.8.2" type="github">
  <diagram id="9hqybfcc5q5ypudS5BrD" name="Page-1">
    <mxGraphModel dx="2253" dy="1940" grid="1" gridSize="10" guides="1" tooltips="1" connect="1" arrows="1" fold="1" page="1" pageScale="1" pageWidth="827" pageHeight="1169" math="0" shadow="0">
      <root>
        <mxCell id="0" />
        <mxCell id="1" parent="0" />
        <mxCell id="U_eiOTlvVRwf-Y54M-i0-1" value="" style="group" vertex="1" connectable="0" parent="1">
          <mxGeometry x="-10" y="620" width="230" height="260" as="geometry" />
        </mxCell>
        <mxCell id="EOSwnPT17PY9McPGaiq8-14" value="&lt;font style=&quot;font-size: 18px&quot;&gt;Legend&lt;/font&gt;" style="text;html=1;strokeColor=none;fillColor=none;align=center;verticalAlign=middle;whiteSpace=wrap;rounded=0;" parent="U_eiOTlvVRwf-Y54M-i0-1" vertex="1">
          <mxGeometry width="140" height="60" as="geometry" />
        </mxCell>
        <mxCell id="EOSwnPT17PY9McPGaiq8-15" value="" style="whiteSpace=wrap;html=1;aspect=fixed;fillColor=#dae8fc;strokeColor=#6c8ebf;" parent="U_eiOTlvVRwf-Y54M-i0-1" vertex="1">
          <mxGeometry x="30" y="50" width="70" height="70" as="geometry" />
        </mxCell>
        <mxCell id="EOSwnPT17PY9McPGaiq8-16" value="Main idea" style="text;html=1;strokeColor=none;fillColor=none;align=center;verticalAlign=middle;whiteSpace=wrap;rounded=0;" parent="U_eiOTlvVRwf-Y54M-i0-1" vertex="1">
          <mxGeometry x="120" y="70" width="100" height="20" as="geometry" />
        </mxCell>
        <mxCell id="EOSwnPT17PY9McPGaiq8-17" value="" style="rounded=1;whiteSpace=wrap;html=1;fillColor=#f8cecc;strokeColor=#b85450;" parent="U_eiOTlvVRwf-Y54M-i0-1" vertex="1">
          <mxGeometry x="25" y="140" width="80" height="50" as="geometry" />
        </mxCell>
        <mxCell id="EOSwnPT17PY9McPGaiq8-18" value="MVP" style="text;html=1;strokeColor=none;fillColor=none;align=center;verticalAlign=middle;whiteSpace=wrap;rounded=0;" parent="U_eiOTlvVRwf-Y54M-i0-1" vertex="1">
          <mxGeometry x="130" y="155" width="100" height="20" as="geometry" />
        </mxCell>
        <mxCell id="EOSwnPT17PY9McPGaiq8-20" value="" style="rounded=1;whiteSpace=wrap;html=1;fillColor=#d5e8d4;strokeColor=#82b366;" parent="U_eiOTlvVRwf-Y54M-i0-1" vertex="1">
          <mxGeometry x="25" y="210" width="80" height="50" as="geometry" />
        </mxCell>
        <mxCell id="EOSwnPT17PY9McPGaiq8-21" value="Nice to have" style="text;html=1;strokeColor=none;fillColor=none;align=center;verticalAlign=middle;whiteSpace=wrap;rounded=0;" parent="U_eiOTlvVRwf-Y54M-i0-1" vertex="1">
          <mxGeometry x="130" y="225" width="100" height="20" as="geometry" />
        </mxCell>
        <mxCell id="U_eiOTlvVRwf-Y54M-i0-21" style="edgeStyle=orthogonalEdgeStyle;rounded=0;orthogonalLoop=1;jettySize=auto;html=1;exitX=0;exitY=1;exitDx=0;exitDy=0;entryX=0.5;entryY=0;entryDx=0;entryDy=0;" edge="1" parent="1" source="EOSwnPT17PY9McPGaiq8-1" target="U_eiOTlvVRwf-Y54M-i0-20">
          <mxGeometry relative="1" as="geometry" />
        </mxCell>
        <mxCell id="EOSwnPT17PY9McPGaiq8-1" value="&lt;font color=&quot;#003366&quot; style=&quot;font-size: 18px&quot;&gt;Trade 24/7&lt;/font&gt;" style="whiteSpace=wrap;html=1;aspect=fixed;fillColor=#dae8fc;strokeColor=#6c8ebf;" parent="1" vertex="1">
          <mxGeometry x="700" y="400" width="180" height="180" as="geometry" />
        </mxCell>
        <mxCell id="EOSwnPT17PY9McPGaiq8-2" value="Data APIs" style="rounded=1;whiteSpace=wrap;html=1;fillColor=#f8cecc;strokeColor=#b85450;" parent="1" vertex="1">
          <mxGeometry x="340" y="340" width="120" height="60" as="geometry" />
        </mxCell>
        <mxCell id="EOSwnPT17PY9McPGaiq8-3" style="edgeStyle=orthogonalEdgeStyle;rounded=0;orthogonalLoop=1;jettySize=auto;html=1;exitX=0;exitY=0.5;exitDx=0;exitDy=0;entryX=1;entryY=0.5;entryDx=0;entryDy=0;" parent="1" source="EOSwnPT17PY9McPGaiq8-1" target="EOSwnPT17PY9McPGaiq8-2" edge="1">
          <mxGeometry x="310" y="30" as="geometry" />
        </mxCell>
        <mxCell id="EOSwnPT17PY9McPGaiq8-4" value="Determine whether to buy/sell" style="rounded=1;whiteSpace=wrap;html=1;fillColor=#f8cecc;strokeColor=#b85450;" parent="1" vertex="1">
          <mxGeometry x="560" y="160" width="120" height="70" as="geometry" />
        </mxCell>
        <mxCell id="EOSwnPT17PY9McPGaiq8-5" style="edgeStyle=orthogonalEdgeStyle;rounded=0;orthogonalLoop=1;jettySize=auto;html=1;exitX=0.5;exitY=0;exitDx=0;exitDy=0;entryX=0.5;entryY=1;entryDx=0;entryDy=0;" parent="1" source="EOSwnPT17PY9McPGaiq8-1" target="EOSwnPT17PY9McPGaiq8-4" edge="1">
          <mxGeometry x="310" y="30" as="geometry" />
        </mxCell>
        <mxCell id="U_eiOTlvVRwf-Y54M-i0-28" style="edgeStyle=orthogonalEdgeStyle;rounded=0;orthogonalLoop=1;jettySize=auto;html=1;entryX=0.433;entryY=1;entryDx=0;entryDy=0;entryPerimeter=0;" edge="1" parent="1" source="EOSwnPT17PY9McPGaiq8-6" target="U_eiOTlvVRwf-Y54M-i0-27">
          <mxGeometry relative="1" as="geometry" />
        </mxCell>
        <mxCell id="EOSwnPT17PY9McPGaiq8-6" value="Long term value of the portfolio" style="rounded=1;whiteSpace=wrap;html=1;fillColor=#f8cecc;strokeColor=#b85450;" parent="1" vertex="1">
          <mxGeometry x="890" y="220" width="160" height="60" as="geometry" />
        </mxCell>
        <mxCell id="EOSwnPT17PY9McPGaiq8-7" style="edgeStyle=orthogonalEdgeStyle;rounded=0;orthogonalLoop=1;jettySize=auto;html=1;exitX=1;exitY=0.5;exitDx=0;exitDy=0;entryX=0.5;entryY=1;entryDx=0;entryDy=0;" parent="1" source="EOSwnPT17PY9McPGaiq8-1" target="EOSwnPT17PY9McPGaiq8-6" edge="1">
          <mxGeometry x="310" y="30" as="geometry" />
        </mxCell>
        <mxCell id="EOSwnPT17PY9McPGaiq8-8" value="Notifying users" style="rounded=1;whiteSpace=wrap;html=1;fillColor=#d5e8d4;strokeColor=#82b366;" parent="1" vertex="1">
          <mxGeometry x="530" y="30" width="120" height="60" as="geometry" />
        </mxCell>
        <mxCell id="EOSwnPT17PY9McPGaiq8-9" style="edgeStyle=orthogonalEdgeStyle;rounded=0;orthogonalLoop=1;jettySize=auto;html=1;entryX=0.5;entryY=1;entryDx=0;entryDy=0;" parent="1" source="EOSwnPT17PY9McPGaiq8-4" target="EOSwnPT17PY9McPGaiq8-8" edge="1">
          <mxGeometry x="310" y="30" as="geometry" />
        </mxCell>
        <mxCell id="EOSwnPT17PY9McPGaiq8-10" value="Simulations" style="rounded=1;whiteSpace=wrap;html=1;fillColor=#f8cecc;strokeColor=#b85450;" parent="1" vertex="1">
          <mxGeometry x="920" y="40" width="120" height="60" as="geometry" />
        </mxCell>
        <mxCell id="EOSwnPT17PY9McPGaiq8-11" style="edgeStyle=orthogonalEdgeStyle;rounded=0;orthogonalLoop=1;jettySize=auto;html=1;exitX=1;exitY=0.5;exitDx=0;exitDy=0;" parent="1" source="EOSwnPT17PY9McPGaiq8-6" target="EOSwnPT17PY9McPGaiq8-10" edge="1">
          <mxGeometry x="310" y="30" as="geometry" />
        </mxCell>
        <mxCell id="U_eiOTlvVRwf-Y54M-i0-22" style="edgeStyle=orthogonalEdgeStyle;rounded=0;orthogonalLoop=1;jettySize=auto;html=1;exitX=0;exitY=0.5;exitDx=0;exitDy=0;entryX=0.5;entryY=1;entryDx=0;entryDy=0;" edge="1" parent="1" source="EOSwnPT17PY9McPGaiq8-12" target="U_eiOTlvVRwf-Y54M-i0-19">
          <mxGeometry relative="1" as="geometry" />
        </mxCell>
        <mxCell id="U_eiOTlvVRwf-Y54M-i0-26" style="edgeStyle=orthogonalEdgeStyle;rounded=0;orthogonalLoop=1;jettySize=auto;html=1;exitX=0.5;exitY=0;exitDx=0;exitDy=0;entryX=0.5;entryY=1;entryDx=0;entryDy=0;" edge="1" parent="1" source="EOSwnPT17PY9McPGaiq8-12" target="U_eiOTlvVRwf-Y54M-i0-25">
          <mxGeometry relative="1" as="geometry" />
        </mxCell>
        <mxCell id="EOSwnPT17PY9McPGaiq8-12" value="Analysis" style="rounded=1;whiteSpace=wrap;html=1;fillColor=#f8cecc;strokeColor=#b85450;" parent="1" vertex="1">
          <mxGeometry x="310" y="30" width="120" height="60" as="geometry" />
        </mxCell>
        <mxCell id="EOSwnPT17PY9McPGaiq8-13" style="edgeStyle=orthogonalEdgeStyle;rounded=0;orthogonalLoop=1;jettySize=auto;html=1;exitX=0;exitY=0.5;exitDx=0;exitDy=0;" parent="1" source="EOSwnPT17PY9McPGaiq8-4" target="EOSwnPT17PY9McPGaiq8-12" edge="1">
          <mxGeometry x="310" y="30" as="geometry" />
        </mxCell>
        <mxCell id="EOSwnPT17PY9McPGaiq8-22" value="Deploying on web server" style="rounded=1;whiteSpace=wrap;html=1;fillColor=#d5e8d4;strokeColor=#82b366;" parent="1" vertex="1">
          <mxGeometry x="960" y="630" width="120" height="60" as="geometry" />
        </mxCell>
        <mxCell id="EOSwnPT17PY9McPGaiq8-23" style="edgeStyle=orthogonalEdgeStyle;rounded=0;orthogonalLoop=1;jettySize=auto;html=1;exitX=0.5;exitY=1;exitDx=0;exitDy=0;" parent="1" source="EOSwnPT17PY9McPGaiq8-1" target="EOSwnPT17PY9McPGaiq8-22" edge="1">
          <mxGeometry x="310" y="30" as="geometry" />
        </mxCell>
        <mxCell id="U_eiOTlvVRwf-Y54M-i0-24" style="edgeStyle=orthogonalEdgeStyle;rounded=0;orthogonalLoop=1;jettySize=auto;html=1;exitX=0.5;exitY=0;exitDx=0;exitDy=0;entryX=0.5;entryY=1;entryDx=0;entryDy=0;" edge="1" parent="1" source="U_eiOTlvVRwf-Y54M-i0-19" target="U_eiOTlvVRwf-Y54M-i0-23">
          <mxGeometry relative="1" as="geometry" />
        </mxCell>
        <mxCell id="U_eiOTlvVRwf-Y54M-i0-19" value="Short term buying/selling - Analysis of closing prices" style="rounded=1;whiteSpace=wrap;html=1;fillColor=#f8cecc;strokeColor=#b85450;" vertex="1" parent="1">
          <mxGeometry x="210" y="-90" width="130" height="60" as="geometry" />
        </mxCell>
        <mxCell id="U_eiOTlvVRwf-Y54M-i0-20" value="Business case/Why should the user this algorithm?" style="rounded=1;whiteSpace=wrap;html=1;fillColor=#d5e8d4;strokeColor=#82b366;" vertex="1" parent="1">
          <mxGeometry x="470" y="640" width="150" height="90" as="geometry" />
        </mxCell>
        <mxCell id="U_eiOTlvVRwf-Y54M-i0-23" value="Google Trends" style="rounded=1;whiteSpace=wrap;html=1;fillColor=#f8cecc;strokeColor=#b85450;" vertex="1" parent="1">
          <mxGeometry x="210" y="-200" width="130" height="60" as="geometry" />
        </mxCell>
        <mxCell id="U_eiOTlvVRwf-Y54M-i0-25" value="Moving averages - 50 days and 200 days" style="rounded=1;whiteSpace=wrap;html=1;fillColor=#f8cecc;strokeColor=#b85450;" vertex="1" parent="1">
          <mxGeometry x="420" y="-160" width="130" height="60" as="geometry" />
        </mxCell>
        <mxCell id="U_eiOTlvVRwf-Y54M-i0-27" value="Risk Analysis" style="rounded=1;whiteSpace=wrap;html=1;fillColor=#f8cecc;strokeColor=#b85450;" vertex="1" parent="1">
          <mxGeometry x="750" y="40" width="120" height="60" as="geometry" />
        </mxCell>
      </root>
    </mxGraphModel>
  </diagram>
</mxfile>
